<svg width="75" height="76" viewBox="0 0 75 76" fill="none" xmlns="http://www.w3.org/2000/svg">
<path d="M29.5174 46.557C28.7236 46.557 28.1943 47.2214 28.1943 47.8858C28.1943 48.5501 28.8559 49.2145 29.5174 49.2145H50.9517C51.7455 49.2145 52.2748 48.5501 52.2748 47.8858C52.2748 47.2214 51.6132 46.557 50.9517 46.557H48.4378V45.2283V29.948C48.4378 30.0809 48.3055 30.0809 48.1732 30.2137C47.5116 30.6124 46.9824 30.7452 46.3208 30.8781C46.1885 31.011 45.9239 31.011 45.7916 31.1438V31.2767V45.2283V46.557H29.5174Z" fill="#878787"/>
<path d="M12.1848 55.1937C12.1848 55.9909 12.8464 56.5224 13.5079 56.5224H37.456C38.2499 56.5224 38.7791 55.8581 38.7791 55.1937C38.7791 54.5294 38.1176 53.865 37.456 53.865H13.5079C12.7141 53.865 12.1848 54.5294 12.1848 55.1937Z" fill="#878787"/>
<path d="M55.7148 25.9619H52.2747C52.2747 26.2277 52.1424 26.6263 51.8778 26.892C51.6132 27.2906 51.3485 27.5564 51.0839 27.8221C50.9516 27.955 50.687 28.0879 50.5547 28.2208C50.4224 28.3536 50.2901 28.4865 50.1578 28.6194H55.8471C64.5796 28.6194 71.7243 35.9273 71.7243 44.8298V52.935C70.9304 53.0679 69.8719 53.3336 69.2104 53.998C68.5489 54.6623 68.1519 55.4596 68.1519 56.5225C68.1519 58.9142 70.0043 59.8443 71.7243 60.243V62.7675C71.7243 63.6976 71.0627 64.362 70.1366 64.362H66.035C64.8442 61.9703 62.3303 60.3758 59.5518 60.3758C56.7733 60.3758 54.2594 61.9703 53.0686 64.362H48.3054V55.9911V53.8651C48.3054 53.0679 47.7762 52.5364 46.9823 52.5364C46.1884 52.5364 45.6592 53.0679 45.6592 53.8651V56.1239V64.4949H28.062C27.0035 61.8374 24.3573 59.8444 21.3142 59.8444C18.271 59.8444 15.6248 61.8374 14.5663 64.4949H9.00932C8.08315 64.4949 7.4216 63.8305 7.4216 62.9004V41.9066H38.7791C39.5729 41.9066 40.1022 41.2422 40.1022 40.5779C40.1022 39.9135 39.4406 39.2491 38.7791 39.2491H7.4216V20.9128C7.4216 18.6539 9.27394 16.6609 11.5232 16.6609H12.5817H12.9786H30.4436C29.9143 15.8636 29.782 14.9335 29.9143 14.0034H13.1109H12.714H11.6555C7.95084 14.0034 4.90771 17.0595 4.90771 20.9128V39.2491H1.59996C0.806096 39.2491 0.276855 39.9135 0.276855 40.5779C0.276855 41.2422 0.938406 41.9066 1.59996 41.9066H4.7754V62.9004C4.7754 65.2921 6.62774 67.1523 9.00932 67.1523H14.0371C14.0371 71.1385 17.3449 74.4603 21.3142 74.4603C25.2835 74.4603 28.5912 71.1385 28.5912 67.1523H47.1146H52.407C52.407 67.4181 52.407 67.5509 52.407 67.8167C52.407 71.8029 55.7148 75.1247 59.6841 75.1247C63.6534 75.1247 66.9611 71.8029 66.9611 67.8167C66.9611 67.5509 66.9611 67.4181 66.9611 67.1523H70.2689C72.6505 67.1523 74.5028 65.2921 74.5028 62.9004V44.8298C74.3705 34.4657 66.035 25.9619 55.7148 25.9619ZM21.3142 71.8029C18.8003 71.8029 16.6833 69.6769 16.6833 67.1523C16.6833 64.6278 18.8003 62.5018 21.3142 62.5018C23.828 62.5018 25.945 64.6278 25.945 67.1523C25.945 69.6769 23.828 71.8029 21.3142 71.8029ZM59.5518 72.4672C57.0379 72.4672 54.9209 70.3413 54.9209 67.8167C54.9209 65.2921 57.0379 63.1662 59.5518 63.1662C62.0657 63.1662 64.1826 65.2921 64.1826 67.8167C64.1826 70.3413 62.0657 72.4672 59.5518 72.4672ZM70.7981 56.5225C70.7981 56.1239 70.9304 55.9911 71.0627 55.9911C71.1951 55.8582 71.4597 55.7253 71.8566 55.5924V57.5855C71.1951 57.3198 70.7981 57.054 70.7981 56.5225Z" fill="#878787"/>
<path d="M64.7118 44.5642C65.3734 44.5642 66.0349 44.2984 66.5641 43.7669C66.9611 43.2354 67.2257 42.5711 67.0934 41.9067C66.5641 39.2493 64.4472 33.1371 54.7886 32.7385C54.127 32.7385 53.4655 33.0043 53.0685 33.4029C52.6716 33.8015 52.407 34.4659 52.407 34.9974V42.3053C52.407 43.634 53.4655 44.5642 54.7886 44.5642H64.7118ZM54.9209 35.2631C61.6687 35.6617 63.7856 39.3821 64.3149 41.9067H54.9209V35.2631Z" fill="#878787"/>
<path d="M43.9391 33.9341C42.616 33.9341 41.2929 33.5355 40.2344 32.6054L31.6343 25.5632C30.3112 24.5002 29.5173 22.9057 29.5173 21.0455L29.2527 8.28978C29.2527 5.49947 31.105 2.97489 34.0158 2.4434C34.5451 2.31053 35.0743 2.17766 35.7359 2.04479C38.5144 1.5133 41.8221 0.716064 43.9391 0.716064C46.0561 0.716064 49.2315 1.5133 51.8777 2.17766C52.5393 2.31053 53.0685 2.4434 53.4654 2.57628C56.2439 3.24064 58.0963 5.63234 58.0963 8.28978V21.0455C58.0963 22.7729 57.3024 24.5002 55.9793 25.5632L47.7761 32.6054C46.5853 33.5355 45.2622 33.9341 43.9391 33.9341ZM43.9391 3.37351C42.0868 3.37351 38.779 4.17074 36.2651 4.70223C35.6036 4.8351 34.942 4.96798 34.4128 5.10085C32.8251 5.49947 31.7666 6.82819 31.7666 8.28978L32.0312 21.0455C32.0312 21.9756 32.4281 22.9057 33.222 23.4372L41.8221 30.4794C43.0129 31.4096 44.733 31.4096 45.9238 30.4794L54.2593 23.5701C55.0531 22.9057 55.4501 22.1085 55.4501 21.0455V8.28978C55.4501 6.82819 54.3916 5.49947 52.8039 5.10085C52.4069 5.10085 51.8777 4.8351 51.2162 4.70223C48.8346 4.17074 45.6591 3.37351 43.9391 3.37351C44.0714 3.37351 43.9391 3.37351 43.9391 3.37351Z" fill="#878787"/>
<path d="M43.9392 22.1087C43.4099 22.1087 43.013 21.843 42.6161 21.4444L36.9268 14.535C36.3975 14.0035 36.5298 13.0734 37.0591 12.6748C37.5883 12.1433 38.5145 12.2762 38.9114 12.8077L43.6746 18.6541L49.3639 10.0174C49.7608 9.35301 50.5547 9.22014 51.2162 9.61875C51.8778 10.0174 52.0101 10.8146 51.6132 11.479L45.2623 21.1786C45.13 21.843 44.6007 22.1087 43.9392 22.1087C44.0715 22.1087 44.0715 22.1087 43.9392 22.1087Z" fill="#878787"/>
</svg>
