<svg width="21" height="20" viewBox="0 0 21 20" fill="none" xmlns="http://www.w3.org/2000/svg">
<path fill-rule="evenodd" clip-rule="evenodd" d="M10.3345 0.0483398C4.62691 0.0483398 0 4.50388 0 10.0001C0 15.4963 4.62691 19.9518 10.3345 19.9518C16.0421 19.9518 20.669 15.4963 20.669 10.0001C20.669 4.50388 16.0421 0.0483398 10.3345 0.0483398ZM8.06232 4.72457C8.65024 4.69881 8.8381 4.6925 10.335 4.6925H10.3333C11.8307 4.6925 12.0178 4.69881 12.6058 4.72457C13.1925 4.75045 13.5933 4.8399 13.9447 4.97116C14.3075 5.10661 14.6141 5.28795 14.9207 5.58319C15.2273 5.87821 15.4156 6.17433 15.5569 6.52342C15.6924 6.8609 15.7854 7.24658 15.8129 7.81163C15.8393 8.37778 15.8462 8.55868 15.8462 10.0001C15.8462 11.4416 15.8393 11.6221 15.8129 12.1882C15.7854 12.753 15.6924 13.1388 15.5569 13.4764C15.4156 13.8254 15.2273 14.1215 14.9207 14.4165C14.6145 14.7118 14.3074 14.8936 13.945 15.0291C13.5943 15.1604 13.1933 15.2498 12.6066 15.2757C12.0186 15.3015 11.8313 15.3078 10.3343 15.3078C8.83753 15.3078 8.64978 15.3015 8.06186 15.2757C7.4752 15.2498 7.07456 15.1604 6.72387 15.0291C6.36159 14.8936 6.05408 14.7118 5.74783 14.4165C5.44135 14.1215 5.25303 13.8254 5.11214 13.4763C4.97595 13.1388 4.88305 12.7532 4.85607 12.1881C4.82943 11.622 4.82277 11.4416 4.82277 10.0001C4.82277 8.55868 4.82966 8.37766 4.85595 7.81152C4.88236 7.2467 4.97538 6.8609 5.11202 6.52331C5.25326 6.17433 5.44158 5.87821 5.74817 5.58319C6.05454 5.28807 6.36205 5.10672 6.72456 4.97116C7.07502 4.8399 7.47554 4.75045 8.06232 4.72457ZM10.3351 8.23096C11.3497 8.23096 12.1723 9.02301 12.1723 10.0002C12.1723 10.9772 11.3497 11.7694 10.3351 11.7694C9.32032 11.7694 8.4978 10.9772 8.4978 10.0002C8.4978 9.02301 9.32032 8.23096 10.3351 8.23096ZM10.1512 5.64898H10.1509H10.1505C10.0393 5.64893 9.93628 5.64889 9.84047 5.64903V5.64771C8.81321 5.64881 8.61616 5.65545 8.1077 5.67756C7.5703 5.70133 7.27852 5.78758 7.08423 5.86056C6.82701 5.95699 6.64329 6.07198 6.45038 6.25775C6.25746 6.44352 6.13781 6.62044 6.03791 6.86813C5.96247 7.05523 5.87267 7.33609 5.8481 7.85358C5.82169 8.4131 5.81641 8.58029 5.81641 9.99765C5.81641 11.415 5.82169 11.5831 5.8481 12.1426C5.87256 12.6601 5.96247 12.941 6.03791 13.1278C6.13804 13.3756 6.25746 13.5521 6.45038 13.7379C6.64329 13.9236 6.82701 14.0386 7.08423 14.1348C7.27864 14.2075 7.5703 14.294 8.1077 14.3178C8.68873 14.3433 8.86316 14.3488 10.3349 14.3488C11.8066 14.3488 11.9811 14.3433 12.5621 14.3178C13.0995 14.2942 13.3914 14.2079 13.5855 14.135C13.8428 14.0388 14.026 13.9238 14.2189 13.738C14.4118 13.5523 14.5315 13.376 14.6314 13.1283C14.7068 12.9414 14.7966 12.6605 14.8212 12.143C14.8476 11.5835 14.8533 11.4155 14.8533 9.99898C14.8533 8.5825 14.8476 8.41442 14.8212 7.85491C14.7967 7.33742 14.7068 7.05655 14.6314 6.86968C14.5312 6.62199 14.4118 6.44507 14.2189 6.2593C14.0261 6.07353 13.8427 5.95853 13.5855 5.86233C13.3912 5.78968 13.0995 5.70321 12.5621 5.67955C11.981 5.65412 11.8066 5.64903 10.3349 5.64903L10.1512 5.64898ZM12.6157 7.16702C12.6157 6.81528 12.9119 6.53033 13.2771 6.53033V6.53011C13.6422 6.53011 13.9385 6.81539 13.9385 7.16702C13.9385 7.51866 13.6422 7.80394 13.2771 7.80394C12.9119 7.80394 12.6157 7.51866 12.6157 7.16702ZM10.335 7.27447C8.77179 7.27447 7.50443 8.4949 7.50443 10.0002C7.50443 11.5054 8.77179 12.7253 10.335 12.7253C11.8981 12.7253 13.165 11.5054 13.165 10.0002C13.165 8.4949 11.8981 7.27447 10.335 7.27447Z" fill="white"/>
</svg>
