<svg width="80" height="78" viewBox="0 0 80 78" fill="none" xmlns="http://www.w3.org/2000/svg">
<path d="M77.9645 30.65L77.2681 26.3454C77.1288 25.0957 76.0145 24.2626 74.7609 24.2626H73.3681L67.3788 18.2917C67.1002 18.014 66.8216 17.8752 66.5431 17.7363C66.5431 18.7083 66.2645 19.6803 65.8466 20.7911L71.2788 26.3454C71.6966 26.762 72.3931 27.0397 73.0895 27.0397H74.3431L75.0395 30.9277L66.1252 39.8145C65.7073 40.231 65.5681 40.6476 65.4288 41.0642L63.6181 50.0899L58.4645 58.2824H58.3252L53.3109 61.0595C53.0323 61.1984 52.6145 61.3372 52.3359 61.4761L48.018 64.9475C47.6002 65.2252 47.3216 65.7806 47.1823 66.3361L46.3466 69.3909L37.9894 74.6674L34.0894 69.3909L38.1287 65.7806C38.9644 65.0863 39.3823 63.9755 38.9644 63.0035L36.4573 55.6441C36.1787 54.811 35.4823 54.2555 34.6466 53.9778L32.2787 53.4224L31.5823 46.2019C31.443 45.3687 31.1644 44.6744 30.468 44.2579C29.7716 43.8413 29.0751 43.7025 28.2394 43.9802L27.8216 40.5088C27.6823 39.6756 27.1251 38.9813 26.2894 38.5648L18.9073 35.3711V34.3991C18.9073 33.4271 18.4894 32.7328 17.6537 32.1774C16.818 31.7608 15.9823 31.7608 15.1466 32.1774L10.8287 34.6768L9.43583 33.4271H9.29655C9.15726 32.1774 8.04297 31.0665 6.7894 31.0665H5.67511L2.75011 27.4563L4.14297 24.818L9.43583 23.2906C10.5501 23.0128 11.2465 22.0409 11.2465 20.7911V13.9872C11.2465 13.8483 11.2465 13.5706 11.1073 13.4318L10.6894 11.2101L13.3358 10.6546L15.1466 12.4598C15.843 13.154 16.9573 13.4318 17.9323 13.0152L21.2751 11.7655C22.3894 11.3489 23.0859 10.0992 22.8073 8.98835L22.2501 6.48893L27.2644 5.79465L28.518 10.3769C28.9359 11.6266 30.1894 12.4598 31.443 12.182L34.6466 11.4878C35.4823 11.3489 36.318 10.6546 36.5966 9.82149L36.8752 8.98835L39.8002 10.0992C40.218 10.2381 40.4966 10.2381 40.9145 10.2381C40.7752 9.1272 41.3323 7.8775 42.168 7.18321C42.5859 6.76664 43.2823 6.35008 43.7002 6.07236C43.8395 5.93351 44.118 5.79465 44.2573 5.65579L44.3966 5.51694C43.7002 5.37808 43.0037 5.51694 42.5859 5.93351L40.6359 7.32207L37.5716 6.35008C36.8752 6.07236 36.1787 6.07236 35.6216 6.35008C34.9252 6.62779 34.5073 7.18321 34.2287 7.8775L33.9502 8.84949L31.1644 9.40492L29.9109 4.82265C29.6323 3.57295 28.3787 2.87866 27.1251 3.01752L21.5537 3.7118C20.8573 3.85066 20.1608 4.12837 19.8823 4.6838C19.4644 5.23922 19.3251 5.93351 19.4644 6.62779L20.0216 9.1272L17.0966 10.2381L15.2858 8.43292C14.7287 7.8775 13.893 7.59978 13.0573 7.73864L9.85369 8.43292C9.15726 8.57178 8.46083 8.98835 8.18226 9.54377C7.7644 10.2381 7.62511 10.9323 7.7644 11.6266L8.46083 14.126V20.6523L3.16797 22.1797C2.47154 22.3186 1.91439 22.874 1.63582 23.4294L0.242961 26.2065C-0.174897 27.0397 -0.0356108 28.1505 0.521533 28.9837L3.58582 32.8717C4.14297 33.4271 4.8394 33.8436 5.53583 33.8436H6.51083C6.65011 34.6768 7.06797 35.5099 7.90369 35.7876L9.57512 37.3151L9.85369 37.4539C10.5501 37.7316 11.2465 37.5928 11.943 37.3151L16.1216 34.9545V35.6488C16.1216 36.6208 16.6787 37.5928 17.6537 38.0093L25.0359 41.3419L25.7323 45.091C25.8716 45.7853 26.2894 46.4796 26.9859 46.8962C27.543 47.3127 28.3787 47.3127 29.0751 47.1739L29.7716 54.2555C29.9109 55.3664 30.6073 56.1995 31.7216 56.4772L34.0894 57.0327L36.4573 64.1144L32.418 67.7246C31.8609 68.1412 31.5823 68.6966 31.443 69.3909C31.3037 70.0852 31.5823 70.7795 31.8609 71.3349L36.0394 77.028C36.4573 77.5834 37.293 78 37.9894 78C38.6859 78 39.243 77.7223 39.8002 77.3057L48.4359 71.7515L48.5752 71.6126C48.8538 71.3349 48.993 71.0572 48.993 70.6406L49.8288 67.4469L54.0073 64.1144H54.1466L59.1609 61.3372C59.7181 61.1984 60.2752 60.7818 60.6931 60.2264L66.1252 52.1727C66.2645 51.895 66.4038 51.6173 66.5431 51.2007L68.3538 42.175L77.2681 33.1494C77.8252 32.3162 78.1038 31.4831 77.9645 30.65Z" fill="#878787"/>
<path d="M54.5376 41.0818C50.9083 41.0818 39.6018 25.5374 39.6018 14.8505C39.6018 6.66192 46.302 0 54.5376 0C62.7732 0 69.4733 6.66192 69.4733 14.8505C69.3338 25.5374 58.0272 41.0818 54.5376 41.0818ZM54.5376 2.7758C47.8374 2.7758 42.5331 8.18861 42.5331 14.8505C42.5331 24.5658 52.3042 36.7794 54.5376 38.1673C56.771 36.7794 66.542 24.5658 66.542 14.8505C66.542 8.18861 61.0981 2.7758 54.5376 2.7758Z" fill="#878787"/>
<path d="M54.5373 21.2347C51.0477 21.2347 48.1163 18.3202 48.1163 14.8504C48.1163 11.3807 50.9081 8.46606 54.5373 8.46606C58.027 8.46606 60.9583 11.3807 60.9583 14.8504C60.9583 18.3202 58.027 21.2347 54.5373 21.2347ZM54.5373 11.3807C52.5831 11.3807 51.0477 13.0461 51.0477 14.9892C51.0477 16.9323 52.5831 18.5977 54.5373 18.5977C56.4915 18.5977 58.027 16.9323 58.027 14.9892C58.027 12.9073 56.4915 11.3807 54.5373 11.3807Z" fill="#878787"/>
</svg>
