<svg width="66" height="74" viewBox="0 0 66 74" fill="none" xmlns="http://www.w3.org/2000/svg">
<path d="M56.0202 22.1437C56.2576 21.106 55.6124 20.0716 54.5795 19.8332C47.4058 18.1783 39.1194 14.7805 33.9595 11.3783C33.32 10.9569 32.4918 10.9569 31.8523 11.3783C26.6924 14.7805 18.406 18.1786 11.2324 19.8332C10.2929 20.0498 9.65891 20.9334 9.75137 21.8976C10.455 29.2073 12.6055 37.5595 15.5034 44.2405C17.3971 48.6071 19.6308 52.3918 22.1421 55.4893C25.0877 59.1232 28.437 61.8335 32.0955 63.5446C32.3527 63.6648 32.629 63.7252 32.9059 63.7252C33.183 63.7252 33.4599 63.6648 33.7166 63.5446C38.7893 61.1718 43.2172 56.9229 46.877 50.9155C49.7388 46.2179 52.1481 40.3499 53.8453 33.9467C54.1179 32.9178 53.5085 31.8618 52.4838 31.588C51.459 31.3143 50.4072 31.9262 50.1351 32.9553C48.0806 40.707 43.1412 54.2928 32.9072 59.6478C27.3675 56.7382 22.5806 50.9022 19.0238 42.7008C15.585 34.7725 14.2442 26.9743 13.7606 23.1826C20.5271 21.4322 27.754 18.4484 32.9065 15.2729C38.4855 18.711 46.496 21.9247 53.7206 23.5913C54.7527 23.8292 55.7828 23.1816 56.0202 22.1437Z" fill="#888888"/>
<path d="M63.8427 13.7054C62.8288 12.5228 61.4236 11.744 59.8869 11.5125C55.5227 10.8551 50.4398 9.31221 45.5762 7.16856C40.446 4.90731 37.9614 3.06271 37.4954 2.59498C34.9642 0.0533012 30.8463 0.0533012 28.3157 2.59498C27.8499 3.06298 25.3651 4.90758 20.2354 7.16856C15.3714 9.31248 10.2889 10.8551 5.92413 11.5125C4.3875 11.744 2.98228 12.5228 1.96837 13.7051C0.954198 14.8875 0.395996 16.3985 0.395996 17.9589C0.395996 22.7533 1.59799 33.9425 6.10507 45.4704C8.52897 51.6699 11.5546 57.0193 15.0981 61.3699C16.9979 63.7025 19.0721 65.7724 21.2634 67.5226C22.0929 68.1851 23.301 68.0467 23.9609 67.2134C24.6209 66.3801 24.4831 65.1677 23.6536 64.5046C21.6756 62.9248 19.7969 61.049 18.0698 58.9288C14.7793 54.8889 11.9567 49.8867 9.67879 44.0613C5.38154 33.0696 4.23516 22.4822 4.23516 17.9589C4.23516 16.6302 5.18468 15.5226 6.49319 15.3257C11.1841 14.6191 16.6124 12.9759 21.7776 10.6989C27.2599 8.28229 30.1729 6.18148 31.0302 5.32104C31.5312 4.81792 32.1967 4.54095 32.9049 4.54095C33.6138 4.54095 34.2794 4.81792 34.7804 5.32104C35.6369 6.18121 38.5496 8.28229 44.0324 10.6989C49.1981 12.9759 54.6264 14.6188 59.3168 15.3257C60.6253 15.5226 61.5749 16.6302 61.5749 17.9589C61.5749 22.4822 60.4285 33.0698 56.1312 44.0613C53.8538 49.887 51.0307 54.8889 47.7402 58.9288C43.7479 63.8304 39.0675 67.3081 33.8295 69.2655C33.5325 69.3765 33.2217 69.4326 32.9046 69.4326C31.8446 69.4326 30.9849 70.2957 30.9849 71.3605C30.9849 72.4253 31.8446 73.2884 32.9046 73.2884C33.6801 73.2884 34.4415 73.1505 35.1685 72.8792C41.0532 70.6799 46.2827 66.8079 50.7119 61.3699C54.2554 57.0193 57.281 51.6701 59.7049 45.4704C64.212 33.9425 65.4146 22.7531 65.4146 17.9589C65.4153 16.3985 64.8566 14.8878 63.8427 13.7054Z" fill="#888888"/>
<path d="M51.5343 26.6126C51.4564 27.053 51.3732 27.5021 51.2861 27.9461C51.0818 28.9912 51.7598 30.0041 52.8007 30.209C52.9255 30.2337 53.0492 30.2457 53.1722 30.2457C54.0708 30.2457 54.8741 29.608 55.054 28.6882C55.1451 28.2212 55.2325 27.7498 55.3141 27.2863C55.4999 26.238 54.8034 25.2374 53.7593 25.0514C52.7157 24.8657 51.7195 25.5644 51.5343 26.6126Z" fill="#888888"/>
<path d="M28.8977 67.9056C28.5133 67.7088 28.127 67.5004 27.7497 67.2862C26.8272 66.7621 25.6562 67.0886 25.134 68.015C24.6118 68.9417 24.9369 70.1179 25.8597 70.6421C26.2846 70.8837 26.721 71.1189 27.1552 71.341C27.4342 71.4839 27.7318 71.5515 28.0245 71.5515C28.7239 71.5515 29.3982 71.1668 29.737 70.4984C30.2182 69.5496 29.8425 68.3891 28.8977 67.9056Z" fill="#888888"/>
</svg>
