<svg width="21" height="20" viewBox="0 0 21 20" fill="none" xmlns="http://www.w3.org/2000/svg">
<path fill-rule="evenodd" clip-rule="evenodd" d="M10.6655 0.0483398C4.95796 0.0483398 0.331055 4.50388 0.331055 10.0001C0.331055 15.4963 4.95796 19.9518 10.6655 19.9518C16.3731 19.9518 21 15.4963 21 10.0001C21 4.50388 16.3731 0.0483398 10.6655 0.0483398ZM14.9723 6.57889C15.4466 6.70422 15.8201 7.07352 15.9469 7.5425C16.1773 8.39247 16.1773 10.1659 16.1773 10.1659C16.1773 10.1659 16.1773 11.9393 15.9469 12.7894C15.8201 13.2583 15.4466 13.6276 14.9723 13.753C14.1127 13.9808 10.6655 13.9808 10.6655 13.9808C10.6655 13.9808 7.2184 13.9808 6.35876 13.753C5.88444 13.6276 5.5109 13.2583 5.38413 12.7894C5.15382 11.9393 5.15382 10.1659 5.15382 10.1659C5.15382 10.1659 5.15382 8.39247 5.38413 7.5425C5.5109 7.07352 5.88444 6.70422 6.35876 6.57889C7.2184 6.35111 10.6655 6.35111 10.6655 6.35111C10.6655 6.35111 14.1127 6.35111 14.9723 6.57889Z" fill="white"/>
<path d="M9.63208 11.9903V8.6731L12.3879 10.3318L9.63208 11.9903Z" fill="white"/>
</svg>
